<svg xmlns="http://www.w3.org/2000/svg" viewBox="0 0 38.75 26.05"><defs><style>.cls-1{fill:#3cac54;}.cls-2{fill:#e4261f;}</style></defs><g id="Capa_2" data-name="Capa 2"><path class="cls-1" d="M6.72,14.09a30.48,30.48,0,0,0-.92,3C5.55,18,5.3,19,5,20a6,6,0,0,0-.13.76c0,.27-.06.53-.08.77s.13.15.21.14a1,1,0,0,0,.22-.05,18.31,18.31,0,0,1,2-.38l2-.29c.51,0,1-.06,1.52-.06a4.79,4.79,0,0,0,1.52-.25,11,11,0,0,0,1.9,0,5.28,5.28,0,0,1,1.93.13l.6.2a3.38,3.38,0,0,0,.6.17,3.51,3.51,0,0,0,.83.8,1.69,1.69,0,0,1,.67,1,3.43,3.43,0,0,1-1.27-.12,4.27,4.27,0,0,0-1.36-.15l-.13.06-.14.07a.69.69,0,0,0-.13.11,25.55,25.55,0,0,0-2.92.23q-1.44.2-2.91.45c-.86.14-1.7.31-2.51.52s-1.63.43-2.47.67c-.3.11-.58.22-.83.34a8.47,8.47,0,0,1-.87.38l-.87.33L1.9,25.7l-.58-.07a8.61,8.61,0,0,0-.83-.49A.94.94,0,0,1,0,24.31a1,1,0,0,1,.31-.5c.14-.13.3-.27.49-.42l.32-.06a2,2,0,0,1,.35,0,.58.58,0,0,0,.1-.15.44.44,0,0,0,.06-.25,3.74,3.74,0,0,1-.57-1.55A8.67,8.67,0,0,1,1,19.65c.06-.66.12-1.32.17-2s.11-1.37.17-2.08a2.85,2.85,0,0,1-.72-.75,9.57,9.57,0,0,1-.54-.94,1.33,1.33,0,0,1,.71-.77,7,7,0,0,1,1-.3,1.68,1.68,0,0,1,.15-.3.51.51,0,0,0,.1-.32A20.36,20.36,0,0,1,3,8.63a31.49,31.49,0,0,1,1.5-3.37,1.38,1.38,0,0,0,.06-.16A1.16,1.16,0,0,1,4.63,5a1.33,1.33,0,0,0-.12-.37l-.18-.37a1.66,1.66,0,0,1-.14-.37.9.9,0,0,1,0-.43A.82.82,0,0,1,4.51,3L5,2.68l.82-.4c.25-.12.49-.26.72-.4a5.89,5.89,0,0,0,.67-.74A1.79,1.79,0,0,1,8,.56a2.25,2.25,0,0,0,.41.21c.16.07.33.15.51.25a1.84,1.84,0,0,0,.31,0A1.28,1.28,0,0,0,9.58.93,28,28,0,0,1,12.4.39c.94-.13,1.88-.22,2.82-.26l1.2-.08c.39,0,.79,0,1.2,0a5,5,0,0,1,1.09.06c.35.06.72.11,1.09.15l.27.26a1.12,1.12,0,0,1,.22.26c.14.23.27.45.38.66s.22.44.32.66a1.76,1.76,0,0,1,.08.37.51.51,0,0,1-.14.37,5.78,5.78,0,0,0-.81-.24c-.28-.07-.56-.15-.85-.25a1.18,1.18,0,0,0-.24.17,2,2,0,0,1-.28.2,3.23,3.23,0,0,0-1,0l-1,.21a5.15,5.15,0,0,1-.75.19l-.79.12a21.87,21.87,0,0,0-2.65.69c-.85.28-1.74.53-2.66.75a1.51,1.51,0,0,0-.44.68c-.07.24-.15.49-.23.73C9,6.8,8.79,7.39,8.62,7.86s-.29.87-.38,1.19-.16.57-.2.78-.07.4-.09.58a.23.23,0,0,0,.21.06l.19,0,2.06-.32,2.05-.32c.37-.06.75-.11,1.14-.14l1.13-.08a3.34,3.34,0,0,1,.95,0,8.68,8.68,0,0,1,1,.23c.16.22.34.45.53.69s.4.48.6.75a.53.53,0,0,1,0,.61h-.32l-.38,0-.34,0h-.34a2.09,2.09,0,0,1-.61.1,3.88,3.88,0,0,1-.77.09,9.72,9.72,0,0,0-1.93.32,18.66,18.66,0,0,1-1.91.42,11.87,11.87,0,0,0-1.78.44,12.83,12.83,0,0,1-1.75.45,2.6,2.6,0,0,0-.47.16Zm-1.13-5a4.52,4.52,0,0,1,.26-1.17c.13-.36.25-.73.35-1.1,0-.12.09-.25.14-.38s.11-.26.17-.39a7.53,7.53,0,0,1,.36-.89L6.74,5.1,6.51,5l-.19.31a2.1,2.1,0,0,0-.15.3A10.71,10.71,0,0,0,5.49,7.2c-.18.55-.33,1.09-.46,1.65-.34,1.49-.68,3-1,4.43a40.85,40.85,0,0,0-.74,4.47c0,.41-.07.79-.09,1.16s0,.76,0,1.17a.09.09,0,0,0,0,.06.09.09,0,0,1,0,.06l.13-.06.12-.06a.76.76,0,0,0,.09.18l.15.25a6,6,0,0,1,0-.77,1.34,1.34,0,0,0-.13-.67,1.82,1.82,0,0,1,.19-1.54c0-.16,0-.31,0-.43a1.88,1.88,0,0,1,0-.4,7.45,7.45,0,0,1,.27-1.65l.57-2.52q.28-1.26.6-2.52l.12-.5a.77.77,0,0,1,.28-.45,2,2,0,0,0,0,.26,1.84,1.84,0,0,1,0,.26.12.12,0,0,0,.09,0,2.77,2.77,0,0,0,0-.49A.42.42,0,0,0,6,8.85a.56.56,0,0,0-.13-.37v.61ZM5.34,11a0,0,0,0,1,0,0H5.25l.09,0Zm.21-.58v-.34H5.46v.34Zm.62-2.33V8a0,0,0,0,1,0,0L6.08,8s0,0,0,0,0,0,0,0Zm.18-.77s0,0,0,0,0,0,0,0l0,0s0,0,.09,0V7.34Z"/><path class="cls-2" d="M22.13,10.21l-.52.45c-.17.13-.36.3-.58.5,0,0,0,0,0,.05a.29.29,0,0,1-.08.14.74.74,0,0,1-.21.3l-.31.31c-.45,0-.88-.09-1.3-.15a4,4,0,0,1-1.25-.43v-.74a9.91,9.91,0,0,1,2-2.7c.83-.78,1.67-1.52,2.51-2.24a18.71,18.71,0,0,1,1.67-1.26c.58-.39,1.18-.76,1.79-1.1s1.33-.79,2-1.14A19.41,19.41,0,0,1,30,1.28c.51-.16,1-.32,1.52-.46s1-.28,1.48-.4A6.21,6.21,0,0,1,35.66.24c.23.1.45.21.66.32a1.71,1.71,0,0,1,.57.47l.4.34.4.31.45.4a1.58,1.58,0,0,1,.27.32,1.46,1.46,0,0,1,.17.4q.06.23.15.63a6.21,6.21,0,0,0-.13.73,1.43,1.43,0,0,1-.3.71q-.15.24-.3.45a1.2,1.2,0,0,0-.22.47A.58.58,0,0,1,37.6,6l-.19.15A.48.48,0,0,1,37,6.14a.28.28,0,0,0-.35.05,1.54,1.54,0,0,0,.27.46.77.77,0,0,1-.73.77,1.1,1.1,0,0,1,0,.18,1.78,1.78,0,0,0,0,.25,6,6,0,0,0-.94,1,9.79,9.79,0,0,1-.94,1l-1,.92c-.31.31-.62.62-.95.92a.31.31,0,0,0,.26.2l.29,0A3.41,3.41,0,0,1,34,12.1a4.35,4.35,0,0,1,1,.54c.33.28.7.58,1.13.89a3.17,3.17,0,0,1,1.57,1.82,3.46,3.46,0,0,1-.15,2.32c-.17.35-.33.69-.48,1a3.32,3.32,0,0,1-.63.93,7.31,7.31,0,0,1-.52.59l-.58.55-.22.12-.24.12a.2.2,0,0,0-.07.16.88.88,0,0,1,0,.21,1.1,1.1,0,0,0-.56.39,1.83,1.83,0,0,1-.54.44h-.52a1.44,1.44,0,0,1-.45.6,4,4,0,0,1-.63.41,5.48,5.48,0,0,1-.53.28l-.54.21-.86.37a8.61,8.61,0,0,1-.89.34h-.28a1.05,1.05,0,0,1-.33-.06l-.17.21a.64.64,0,0,1-.17.16,1.61,1.61,0,0,1-.66.2,2.94,2.94,0,0,1-.66-.05,2.63,2.63,0,0,0-.34.31c-.78.2-1.55.39-2.32.55a13.25,13.25,0,0,1-2.41.28A3.32,3.32,0,0,1,21,26l-.86-.13a1.61,1.61,0,0,1-.69-.27,3.25,3.25,0,0,1-.53-.52v-.56a3,3,0,0,0,.61-.33l.06-.11a.16.16,0,0,0,0-.08c0-.57,0-1.13.05-1.69a13.92,13.92,0,0,1,.14-1.68c0-.62.11-1.23.21-1.85s.21-1.23.31-1.87a22,22,0,0,1,.69-3c.3-1,.63-2,1-2.94l.1-.39a.53.53,0,0,0,0-.35s.07-.06.09-.06S22.17,10.17,22.13,10.21Zm3.5-1.59A1.84,1.84,0,0,0,25.08,10a.62.62,0,0,0-.31.39c0,.17-.09.34-.15.53-.15.37-.29.73-.42,1.1a10.53,10.53,0,0,1-.47,1.11l-.31.64c-.1.21-.21.43-.31.68-.26.94-.53,1.87-.79,2.8s-.54,1.88-.8,2.84c0,0,0,.08,0,.22l.21.06.28.06a.52.52,0,0,0,.21-.09l.08-.09a.21.21,0,0,0,.05-.13c.06-.24.12-.48.19-.72a2.94,2.94,0,0,0,.14-.75,22,22,0,0,1,.86-3.56q.34-1.08.66-2.16c.22-.73.45-1.45.69-2.17a2.12,2.12,0,0,0,.16-.83,1.59,1.59,0,0,0,.36-.62,3.12,3.12,0,0,0,.13-.69.6.6,0,0,1,.12-.11s0-.1,0-.2A1.55,1.55,0,0,0,25.63,8.62ZM25.05,23a3.18,3.18,0,0,1,.75-.62,6.35,6.35,0,0,1,.87-.42A13.25,13.25,0,0,0,29,20.75a22.87,22.87,0,0,0,2.11-1.55c.15-.1.28-.21.42-.32a3.84,3.84,0,0,1,.44-.32,5.22,5.22,0,0,1,.34-.48,3.65,3.65,0,0,0,.34-.5c.18-.27.36-.52.52-.75s.33-.48.49-.73a3.08,3.08,0,0,0,.32-.75,6.08,6.08,0,0,0,.17-.81.85.85,0,0,0,0-.23l-.06-.2a1.36,1.36,0,0,1-.29,0,1.36,1.36,0,0,0-.29,0l-1,.2-.94.2-.27.07a.43.43,0,0,1-.25,0,.89.89,0,0,0-.52,0l-.46.21a4.22,4.22,0,0,1-.77.34,4.47,4.47,0,0,1-.8.19l-.38.1-.23.08-1.41.91q-.64.41-1.26.84a4,4,0,0,0-.49,1.44,6.56,6.56,0,0,1-.34,1.44c-.12.45-.22.89-.31,1.32s-.16.87-.24,1.32c0,0-.05,0,0,.08l.06.08c.1.08.18.1.25.06a.43.43,0,0,1,.24-.06,1.36,1.36,0,0,1,.29,0ZM26,6.65a.44.44,0,0,0-.43.22,4.08,4.08,0,0,0-.49,1c-.13.32-.24.65-.34,1a.37.37,0,0,0,0,.11l.08.2L25.46,8l.6-1.1V6.71Zm2.64-1.44c-.35,1.12-.69,2.25-1,3.37s-.68,2.27-1,3.41t.09.12a.86.86,0,0,0,.43-.23c.13-.11.24-.22.34-.32.92-.78,1.81-1.58,2.67-2.41S31.8,7.48,32.6,6.62a19.2,19.2,0,0,0,1.3-1.44c.4-.49.8-1,1.21-1.54a2.36,2.36,0,0,0,.23-.35c.07-.13.15-.26.23-.38s0-.25-.12-.37a6.94,6.94,0,0,0-1.27.24c-.42.13-.83.23-1.22.31l-.47.26a4.09,4.09,0,0,1-.42.2l-.33-.06-.31-.06a.89.89,0,0,1-.14.24,1,1,0,0,0-.14.25c-.28.1-.58.21-.87.34s-.61.26-.94.43L29,4.92Z"/></g></svg>