<svg id="Capa_1" data-name="Capa 1" xmlns="http://www.w3.org/2000/svg" viewBox="0 0 86.47 26.12"><defs><style>.cls-1{fill:#3cac54;}.cls-2{fill:#e4261f;}</style></defs><path class="cls-1" d="M6.72,14.09a30.48,30.48,0,0,0-.92,3C5.55,18,5.3,19,5,20a6,6,0,0,0-.13.76c0,.27-.06.53-.08.77s.13.15.21.14a1,1,0,0,0,.22-.05,18.31,18.31,0,0,1,2-.38l2-.29c.51,0,1-.06,1.52-.06a4.79,4.79,0,0,0,1.52-.25,11,11,0,0,0,1.9,0,5.28,5.28,0,0,1,1.93.13l.6.2a3.38,3.38,0,0,0,.6.17,3.51,3.51,0,0,0,.83.8,1.69,1.69,0,0,1,.67,1,3.43,3.43,0,0,1-1.27-.12,4.27,4.27,0,0,0-1.36-.15l-.13.06-.14.07a.69.69,0,0,0-.13.11,25.55,25.55,0,0,0-2.92.23q-1.44.2-2.91.45c-.86.14-1.7.31-2.51.52s-1.63.43-2.47.67c-.3.11-.58.22-.83.34a8.47,8.47,0,0,1-.87.38l-.87.33L1.9,25.7l-.58-.07a8.61,8.61,0,0,0-.83-.49A.94.94,0,0,1,0,24.31a1,1,0,0,1,.31-.5c.14-.13.3-.27.49-.42l.32-.06a2,2,0,0,1,.35,0,.58.58,0,0,0,.1-.15.44.44,0,0,0,.06-.25,3.74,3.74,0,0,1-.57-1.55A8.67,8.67,0,0,1,1,19.65c.06-.66.12-1.32.17-2s.11-1.37.17-2.08a2.85,2.85,0,0,1-.72-.75,9.57,9.57,0,0,1-.54-.94,1.33,1.33,0,0,1,.71-.77,7,7,0,0,1,1-.3,1.68,1.68,0,0,1,.15-.3.51.51,0,0,0,.1-.32A20.36,20.36,0,0,1,3,8.63a31.49,31.49,0,0,1,1.5-3.37,1.38,1.38,0,0,0,.06-.16A1.16,1.16,0,0,1,4.63,5a1.33,1.33,0,0,0-.12-.37l-.18-.37a1.66,1.66,0,0,1-.14-.37.9.9,0,0,1,0-.43A.82.82,0,0,1,4.51,3L5,2.68l.82-.4c.25-.12.49-.26.72-.4a5.89,5.89,0,0,0,.67-.74A1.79,1.79,0,0,1,8,.56a2.25,2.25,0,0,0,.41.21c.16.07.33.15.51.25a1.84,1.84,0,0,0,.31,0A1.28,1.28,0,0,0,9.58.93,28,28,0,0,1,12.4.39c.94-.13,1.88-.22,2.82-.26l1.2-.08c.39,0,.79,0,1.2,0a5,5,0,0,1,1.09.06c.35.06.72.11,1.09.15l.27.26a1.12,1.12,0,0,1,.22.26c.14.23.27.45.38.66s.22.44.32.66a1.76,1.76,0,0,1,.08.37.51.51,0,0,1-.14.37,5.78,5.78,0,0,0-.81-.24c-.28-.07-.56-.15-.85-.25a1.18,1.18,0,0,0-.24.17,2,2,0,0,1-.28.2,3.23,3.23,0,0,0-1,0l-1,.21a5.15,5.15,0,0,1-.75.19l-.79.12a21.87,21.87,0,0,0-2.65.69c-.85.28-1.74.53-2.66.75a1.51,1.51,0,0,0-.44.68c-.07.24-.15.49-.23.73C9,6.8,8.79,7.39,8.62,7.86s-.29.87-.38,1.19-.16.57-.2.78-.07.4-.09.58a.23.23,0,0,0,.21.06l.19,0,2.06-.32,2.05-.32c.37-.06.75-.11,1.14-.14l1.13-.08a3.34,3.34,0,0,1,.95,0,8.68,8.68,0,0,1,1,.23c.16.22.34.45.53.69s.4.48.6.75a.53.53,0,0,1,0,.61h-.32l-.38,0-.34,0h-.34a2.09,2.09,0,0,1-.61.1,3.88,3.88,0,0,1-.77.09,9.72,9.72,0,0,0-1.93.32,18.66,18.66,0,0,1-1.91.42,11.87,11.87,0,0,0-1.78.44,12.83,12.83,0,0,1-1.75.45,2.6,2.6,0,0,0-.47.16Zm-1.13-5a4.52,4.52,0,0,1,.26-1.17c.13-.36.25-.73.35-1.1,0-.12.09-.25.14-.38s.11-.26.17-.39a7.53,7.53,0,0,1,.36-.89L6.74,5.1,6.51,5l-.19.31a2.1,2.1,0,0,0-.15.3A10.71,10.71,0,0,0,5.49,7.2c-.18.55-.33,1.09-.46,1.65-.34,1.49-.68,3-1,4.43a40.85,40.85,0,0,0-.74,4.47c0,.41-.07.79-.09,1.16s0,.76,0,1.17a.09.09,0,0,0,0,.06.09.09,0,0,1,0,.06l.13-.06.12-.06a.76.76,0,0,0,.09.18l.15.25a6,6,0,0,1,0-.77,1.34,1.34,0,0,0-.13-.67,1.82,1.82,0,0,1,.19-1.54c0-.16,0-.31,0-.43a1.88,1.88,0,0,1,0-.4,7.45,7.45,0,0,1,.27-1.65l.57-2.52q.28-1.26.6-2.52l.12-.5a.77.77,0,0,1,.28-.45,2,2,0,0,0,0,.26,1.84,1.84,0,0,1,0,.26.12.12,0,0,0,.09,0,2.77,2.77,0,0,0,0-.49A.42.42,0,0,0,6,8.85a.56.56,0,0,0-.13-.37v.61ZM5.34,11a0,0,0,0,1,0,0H5.25l.09,0Zm.21-.58v-.34H5.46v.34Zm.62-2.33V8a0,0,0,0,1,0,0L6.08,8s0,0,0,0,0,0,0,0Zm.18-.77s0,0,0,0,0,0,0,0l0,0s0,0,.09,0V7.34Z"/><path class="cls-1" d="M23,21.4a4.85,4.85,0,0,0,.72-.71c.19-.24.4-.5.63-.76s.51-.63.81-1,.59-.69.88-1,.56-.73.82-1.09a8.29,8.29,0,0,0,.68-1.11c.1-.16.2-.35.31-.57a1.79,1.79,0,0,1,.43-.57c.26.09.53.16.81.24a1.91,1.91,0,0,1,.75.38,3.15,3.15,0,0,1-.48,1.24,4.45,4.45,0,0,0-.53,1.15,2.58,2.58,0,0,1-.37.37,2,2,0,0,0-.34.37,1.61,1.61,0,0,1-.24.67,4.25,4.25,0,0,1-.42.53l-.49.49a3.53,3.53,0,0,0-.48.58.54.54,0,0,1-.15.15.53.53,0,0,0-.15.22l-.39.58a5.23,5.23,0,0,1-.35.52.43.43,0,0,1-.12.14l-.12.11a7.22,7.22,0,0,1-.68.49c-.22.14-.45.3-.67.46a4.64,4.64,0,0,1-1.42.2A3.49,3.49,0,0,1,21,23.12a2.65,2.65,0,0,1-1.13-.82,3.08,3.08,0,0,1-.59-1.42,7.34,7.34,0,0,1-.21-1.06,5.88,5.88,0,0,1,0-1c0-.63,0-1.21.06-1.73s.1-1,.17-1.54.16-1,.27-1.5.27-1,.45-1.64c.14-.35.29-.7.44-1.05s.32-.68.48-1a5.45,5.45,0,0,1,.29-.51c.09-.13.19-.25.29-.37a2.94,2.94,0,0,1,.37-.32l.55-.4a4.3,4.3,0,0,1,1.08-.1,3.55,3.55,0,0,1,1.1.2,2.9,2.9,0,0,0,.71.21l.74.15.59.13.45.12a1.9,1.9,0,0,1,.43.52,1.35,1.35,0,0,1,.14.49,2.64,2.64,0,0,1,0,.55,4.72,4.72,0,0,0-.05.68.41.41,0,0,0-.28.35.41.41,0,0,1-.27.36l-.86-.31-.89-.31c-.15.21-.3.41-.48.62s-.34.42-.5.64a3.37,3.37,0,0,1-.14,1.14c-.12.36-.25.75-.42,1.16s-.22.63-.29.89-.13.52-.17.77-.07.5-.1.77-.08.56-.14.89a8.58,8.58,0,0,0-.16,1.24c0,.42-.05.84-.09,1.27a.1.1,0,0,0,.06.09A.58.58,0,0,1,23,21.4Zm-1.78-5.28a3,3,0,0,1-.13.86c-.08.26-.15.54-.23.81s-.13.55-.2.82a2.44,2.44,0,0,0,0,.86.65.65,0,0,1,.25,0,3.56,3.56,0,0,0,.15-.71c0-.31.08-.63.11-1s0-.66.06-1S21.18,16.3,21.18,16.12Zm0-2.12c.26-.47.49-.89.67-1.27l.55-1.09a.05.05,0,0,0,0-.05.14.14,0,0,1-.06-.07,2.46,2.46,0,0,0-.72.82A5.39,5.39,0,0,0,21.18,14Zm.3,1.05a.13.13,0,0,0-.09,0,1.41,1.41,0,0,1,0,.22.86.86,0,0,0,0,.25.12.12,0,0,0,.09,0,1.47,1.47,0,0,1,0-.25A1.34,1.34,0,0,0,21.48,15.05Zm.19-1a.13.13,0,0,1,0,.08s0,0,0,.08.1-.1.12-.1A.1.1,0,0,1,21.67,14Z"/><path class="cls-1" d="M33.91,11.61l.28-.26.28-.26c.34.18.71.35,1.09.52a11.12,11.12,0,0,1,1.09.55,12.07,12.07,0,0,0,1.19.6L39,13.3a5.68,5.68,0,0,0,1.12.38,3.13,3.13,0,0,1,1.18.57,1,1,0,0,1-.12.23.48.48,0,0,0-.1.17,6.11,6.11,0,0,1-.65.36l-.73.34a7.9,7.9,0,0,1-1.09-.2,6.12,6.12,0,0,1-1.09-.38.38.38,0,0,0-.19.26,1.37,1.37,0,0,0,0,.29,8.56,8.56,0,0,1,0,1.24,5.85,5.85,0,0,1-.23,1.28l-.32.49a3.87,3.87,0,0,0-.32.58.71.71,0,0,0,0,.2c0,.07,0,.16,0,.26a3.46,3.46,0,0,0-.24.57,3,3,0,0,1-.25.54c-.29.39-.57.78-.84,1.18a6,6,0,0,1-.94,1.06,4.46,4.46,0,0,1-4.66.7,2.68,2.68,0,0,1-.36-.16,2.19,2.19,0,0,0-.35-.17c-.29-.19-.53-.35-.72-.49a2.73,2.73,0,0,1-.49-.46,2.91,2.91,0,0,1-.37-.6c-.11-.24-.24-.53-.39-.88a9.48,9.48,0,0,1,0-2.56,10.62,10.62,0,0,1,.64-2.38,20,20,0,0,1,1-2.09c.35-.65.71-1.29,1.08-1.9a6.34,6.34,0,0,1,.41-.58c.13-.17.27-.33.41-.49a2.21,2.21,0,0,1,.4-.36,1.22,1.22,0,0,1,.53-.16,14.51,14.51,0,0,1,1.28.72Q33.24,11.24,33.91,11.61Zm-2.7,9.76c.47-.35.91-.7,1.31-1.06A5.58,5.58,0,0,0,33.58,19a6.67,6.67,0,0,0,.72-1.65,11.47,11.47,0,0,0,.32-1.75,9.79,9.79,0,0,0,0-2.18A4,4,0,0,0,34.13,12l-.28.6-.24.5-.2.11-.14.08c-.12.28-.24.58-.34.89s-.2.59-.31.85c-.18.43-.36.87-.53,1.31a7.6,7.6,0,0,0-.42,1.4l-.06.24-.06.25A9.28,9.28,0,0,0,30.87,21a.15.15,0,0,0,0,.11l.06.1.12.07A.47.47,0,0,1,31.21,21.37Z"/><path class="cls-2" d="M40.17,10.29c-.18.16-.35.31-.52.44l-.58.51s0,0,0,0a.24.24,0,0,1-.07.13.66.66,0,0,1-.22.31l-.3.31c-.45,0-.89-.09-1.31-.16a3.72,3.72,0,0,1-1.24-.42v-.74a9.52,9.52,0,0,1,2-2.7c.83-.78,1.66-1.53,2.5-2.24a18.71,18.71,0,0,1,1.67-1.26c.59-.39,1.18-.76,1.8-1.11s1.32-.78,2-1.13A17.53,17.53,0,0,1,48,1.36c.51-.17,1-.32,1.52-.46s1-.28,1.49-.4A6.37,6.37,0,0,1,53.71.31c.22.11.44.21.66.33a1.93,1.93,0,0,1,.57.47c.14.13.27.24.4.34l.39.31c.19.16.34.29.45.4a2.07,2.07,0,0,1,.28.32,1.66,1.66,0,0,1,.17.4q.06.22.15.63a6.26,6.26,0,0,0-.14.73,1.56,1.56,0,0,1-.29.71c-.1.16-.21.31-.31.44a1.23,1.23,0,0,0-.21.48.57.57,0,0,1-.19.24l-.18.16a.54.54,0,0,1-.42,0,.28.28,0,0,0-.35,0,1.5,1.5,0,0,0,.28.46.78.78,0,0,1-.74.77,1.09,1.09,0,0,1,0,.18.82.82,0,0,0,0,.24,6.56,6.56,0,0,0-.94,1,9.58,9.58,0,0,1-.93,1c-.35.31-.68.61-1,.92s-.63.61-1,.92a.34.34,0,0,0,.27.2L51,12a3.1,3.1,0,0,1,1.07.23,4.25,4.25,0,0,1,.95.53,13,13,0,0,0,1.14.89,3.13,3.13,0,0,1,1.56,1.83,3.34,3.34,0,0,1-.15,2.32c-.16.34-.32.69-.48,1a3.37,3.37,0,0,1-.63.94,5.67,5.67,0,0,1-.52.58c-.18.19-.38.37-.58.56L53.1,21l-.25.12a.2.2,0,0,0-.06.15.89.89,0,0,1,0,.22,1.13,1.13,0,0,0-.57.38,1.51,1.51,0,0,1-.54.45h-.52a1.56,1.56,0,0,1-.44.6,5.23,5.23,0,0,1-.63.41l-.54.28a4.33,4.33,0,0,1-.54.21l-.86.37c-.28.12-.58.24-.89.34H47a1.06,1.06,0,0,1-.34-.06l-.17.21a1.29,1.29,0,0,1-.17.16,1.67,1.67,0,0,1-.66.2A3,3,0,0,1,45,25a2.71,2.71,0,0,0-.33.31c-.78.2-1.56.38-2.32.55a13.37,13.37,0,0,1-2.41.27,2.66,2.66,0,0,1-.89,0L38.15,26a1.52,1.52,0,0,1-.69-.27,2.71,2.71,0,0,1-.54-.53v-.55a2.72,2.72,0,0,0,.62-.34l.06-.1a.16.16,0,0,0,0-.08c0-.57,0-1.14,0-1.69a14.26,14.26,0,0,1,.14-1.69A16.77,16.77,0,0,1,38,18.88c.1-.61.2-1.24.3-1.87A24.88,24.88,0,0,1,39,14c.3-1,.63-2,1-3l.11-.38a.6.6,0,0,0,0-.35s.07-.06.1-.06S40.22,10.25,40.17,10.29Zm3.5-1.6a1.91,1.91,0,0,0-.55,1.38.7.7,0,0,0-.31.4c0,.17-.09.34-.15.52-.14.37-.28.74-.41,1.11a11.82,11.82,0,0,1-.48,1.1c-.1.23-.2.44-.31.65s-.2.43-.3.67c-.27,1-.54,1.88-.8,2.81s-.53,1.88-.8,2.84c0,0,0,.07,0,.22l.22.06.27.06a.61.61,0,0,0,.22-.09l.07-.1a.21.21,0,0,0,.05-.12c.06-.24.13-.48.2-.72a3.56,3.56,0,0,0,.14-.75,20.75,20.75,0,0,1,.86-3.56L42.28,13c.21-.73.44-1.45.69-2.17a2.34,2.34,0,0,0,.15-.83,1.48,1.48,0,0,0,.37-.63,3.54,3.54,0,0,0,.12-.69l.12-.1c.05,0,0-.1,0-.2A1.53,1.53,0,0,0,43.67,8.69Zm-.58,14.4a3.64,3.64,0,0,1,.75-.62,8,8,0,0,1,.88-.43,12.51,12.51,0,0,0,2.36-1.21,25,25,0,0,0,2.12-1.55l.41-.32a4,4,0,0,1,.45-.32,4.07,4.07,0,0,1,.33-.48,2.66,2.66,0,0,0,.34-.51c.19-.26.36-.51.52-.75s.33-.47.49-.72a2.77,2.77,0,0,0,.33-.75c.07-.26.12-.53.17-.81a.8.8,0,0,0,0-.23l-.07-.2a1.36,1.36,0,0,1-.29,0,1.36,1.36,0,0,0-.29,0l-1,.19c-.31.08-.62.14-.93.2l-.28.08a.4.4,0,0,1-.24,0,.78.78,0,0,0-.53,0l-.46.21a5,5,0,0,1-.76.34,4.69,4.69,0,0,1-.8.18l-.39.11-.22.08-1.42.9c-.43.28-.85.56-1.25.85a4,4,0,0,0-.5,1.44,7.16,7.16,0,0,1-.33,1.44c-.13.45-.23.89-.31,1.32s-.16.87-.25,1.32c0,0-.05.05,0,.08L42,23c.11.09.19.11.25.07a.44.44,0,0,1,.25-.07,1.45,1.45,0,0,1,.29,0ZM44,6.73a.46.46,0,0,0-.43.21,4.83,4.83,0,0,0-.49,1c-.12.32-.23.65-.34,1a.3.3,0,0,0,0,.1,1,1,0,0,0,.08.2c.22-.41.43-.78.63-1.13s.39-.72.59-1.11V6.79Zm2.64-1.44c-.35,1.12-.69,2.25-1,3.37s-.68,2.26-1,3.41t.09.12a1.06,1.06,0,0,0,.43-.23l.33-.32c.92-.78,1.82-1.58,2.67-2.41s1.69-1.67,2.49-2.53a19.2,19.2,0,0,0,1.3-1.44c.4-.5.81-1,1.22-1.54a3.54,3.54,0,0,0,.23-.35c.07-.14.15-.26.23-.39s0-.24-.13-.36a6.94,6.94,0,0,0-1.27.24c-.42.12-.82.23-1.21.31l-.48.26-.41.2-.34-.06-.31-.06a.89.89,0,0,1-.13.24A.74.74,0,0,0,49.2,4l-.88.33c-.29.13-.61.27-.93.43L47.05,5C46.93,5.09,46.8,5.18,46.68,5.29Z"/><path class="cls-2" d="M62.7,11.61l.28-.26.27-.26c.35.18.71.35,1.09.52a10.1,10.1,0,0,1,1.09.55q.61.35,1.2.6t1.17.54a5.46,5.46,0,0,0,1.12.38,3.2,3.2,0,0,1,1.18.57.94.94,0,0,1-.13.23.46.46,0,0,0-.09.17,5.37,5.37,0,0,1-.66.36c-.21.11-.45.22-.72.34a7.64,7.64,0,0,1-1.09-.2,5.86,5.86,0,0,1-1.09-.38.4.4,0,0,0-.2.26,2.71,2.71,0,0,0,0,.29,10.26,10.26,0,0,1,0,1.24,5.85,5.85,0,0,1-.23,1.28l-.32.49a3.87,3.87,0,0,0-.32.58,1.41,1.41,0,0,0,0,.2c0,.07,0,.16,0,.26a3.53,3.53,0,0,0-.25.57,2.4,2.4,0,0,1-.24.54c-.29.39-.57.78-.85,1.18A5.57,5.57,0,0,1,63,22.72a4.47,4.47,0,0,1-4.67.7,3.32,3.32,0,0,1-.35-.16,2.19,2.19,0,0,0-.35-.17c-.29-.19-.53-.35-.72-.49a2.73,2.73,0,0,1-.49-.46,2.91,2.91,0,0,1-.37-.6c-.12-.24-.24-.53-.39-.88a9.92,9.92,0,0,1,0-2.56,11.21,11.21,0,0,1,.65-2.38,20,20,0,0,1,.95-2.09c.35-.65.71-1.29,1.07-1.9a6.29,6.29,0,0,1,.42-.58c.13-.17.27-.33.41-.49a2.21,2.21,0,0,1,.4-.36,1.18,1.18,0,0,1,.52-.16,13.38,13.38,0,0,1,1.29.72Q62,11.24,62.7,11.61ZM60,21.37a16.09,16.09,0,0,0,1.3-1.06A5.34,5.34,0,0,0,62.36,19a6.35,6.35,0,0,0,.73-1.65,11.47,11.47,0,0,0,.32-1.75,9.79,9.79,0,0,0,0-2.18A4,4,0,0,0,62.92,12c-.11.22-.2.42-.28.6s-.16.34-.25.5l-.2.11-.13.08a7.82,7.82,0,0,0-.34.89c-.1.3-.21.59-.31.85l-.54,1.31a8.45,8.45,0,0,0-.41,1.4L60.4,18l-.06.25A9,9,0,0,0,59.66,21a.2.2,0,0,0,0,.11l.06.1.13.07A.47.47,0,0,1,60,21.37ZM61.2,3.94c.39-.37.8-.73,1.24-1.08s.86-.67,1.27-1,.8-.55,1.15-.78.65-.4.88-.52h1.18l1.15,0a.34.34,0,0,1,.22.31,1.91,1.91,0,0,1-.06.43,8.26,8.26,0,0,1-.82.64c-.38.27-.8.56-1.27.87s-1,.64-1.49,1l-1.46.87a1.62,1.62,0,0,1-1.07-.06A2.94,2.94,0,0,1,61.2,3.94Z"/><path class="cls-2" d="M72.58,16.89a1.92,1.92,0,0,1,.32-.26,2.69,2.69,0,0,0,.33-.26,52.32,52.32,0,0,1,4.42-4.24c.32-.29.66-.56,1-.83s.68-.54,1-.83h.17a.44.44,0,0,1,.2,0c.43.1.86.22,1.29.34l1.23.34a1.57,1.57,0,0,1,.35.5,1.44,1.44,0,0,1,.11.53,4.07,4.07,0,0,1,0,.5l-.06.49c-.13.35-.24.69-.34,1s-.23.65-.37,1-.2.62-.29.93-.2.63-.32.94-.1.4-.16.71-.13.62-.2.95-.14.64-.2.95-.11.55-.15.74a2,2,0,0,0,.6-.51c.28-.3.57-.63.87-1s.59-.71.85-1l.5-.65.31-.36c.1-.13.21-.25.31-.37l.32-.31c.11-.1.22-.2.32-.31l.55,0,.56-.05.15.19a1.19,1.19,0,0,1,.15.18,1.25,1.25,0,0,1,.06.21.82.82,0,0,1-.3.86,5.36,5.36,0,0,0-.65.71l-.55.77-.58.78c-.29.38-.6.78-.94,1.2s-.65.82-.93,1.19-.49.64-.59.79a.9.9,0,0,1-.37.32l-.36.14a2.28,2.28,0,0,0-.36.15.72.72,0,0,0-.29.37.41.41,0,0,1-.07.11l-.11.1-.66,0A5,5,0,0,1,79,23.7c-.33-.06-.65-.13-1-.21a1.74,1.74,0,0,1-.87-.59c0-.32-.1-.67-.17-1s-.13-.71-.17-1.05a3.2,3.2,0,0,1,0-1c0-.43.08-.88.14-1.35s.09-.95.13-1.44a2.78,2.78,0,0,0,0-.37A.54.54,0,0,0,77,16.3q-.09,0-.09,0c-.35.35-.68.71-1,1.06L75,18.48a3.73,3.73,0,0,0-.28.31,3.73,3.73,0,0,1-.28.31l-1,1.3-1,1.31a.54.54,0,0,1-.22.26,3.16,3.16,0,0,0-.27.2l-.48.17-.41.13-.1.28a1.17,1.17,0,0,1-.09.24.82.82,0,0,1-.26.1l-.29.09a1.59,1.59,0,0,0-.29.15l-.29.19a5.1,5.1,0,0,0-.63-.2l-.65-.17a3.3,3.3,0,0,1-.63-.25,1.41,1.41,0,0,1-.52-.46A4.11,4.11,0,0,1,67,21.2a12.46,12.46,0,0,1,0-1.34c.12-.92.28-1.82.47-2.7s.41-1.78.63-2.7a12.48,12.48,0,0,1,.57-1.76c.24-.57.5-1.13.78-1.71A4.85,4.85,0,0,1,70,10.2a1.6,1.6,0,0,1,.22-.28l.21-.21a.84.84,0,0,1,.46-.11,1.22,1.22,0,0,1,.37.07l1,.31c.32.1.67.23,1.06.37l.23.28.26.3a1.32,1.32,0,0,0,0,.29,1,1,0,0,1,0,.3c-.16.77-.33,1.54-.49,2.28a14.33,14.33,0,0,1-.68,2.2,2.6,2.6,0,0,0-.09.86q-.27.18-.06.18a.05.05,0,0,0,.05,0A.23.23,0,0,1,72.58,16.89Zm-2-.52a.77.77,0,0,0,.37-.3.73.73,0,0,0,.09-.35,2.4,2.4,0,0,0,0-.37A2.22,2.22,0,0,1,71,15a.48.48,0,0,0,.33-.46,4.26,4.26,0,0,1,0-.61c.3-.16.44-.36.41-.6s-.07-.49-.11-.78a1.16,1.16,0,0,0,.71-.38.9.9,0,0,0,.12-.66.49.49,0,0,0-.43-.16c-.29.13-.4.3-.34.52a5.58,5.58,0,0,1,.16.68c-.35.2-.51.43-.48.67s.07.52.11.8a.74.74,0,0,0-.38.45c0,.15-.08.33-.14.53a.93.93,0,0,0-.34.73q0,.34,0,.72l-.28.3c-.08.11,0,.23.13.37A1.1,1.1,0,0,0,70.62,16.37Z"/></svg>