<svg id="Capa_1" data-name="Capa 1" xmlns="http://www.w3.org/2000/svg" viewBox="0 0 128.26 38.75"><defs><style>.cls-1{fill:#3cac54;}.cls-2{fill:#e4261f;}</style></defs><path class="cls-1" d="M10,20.89a45.11,45.11,0,0,0-1.37,4.4c-.36,1.44-.74,2.89-1.13,4.34a10.43,10.43,0,0,0-.21,1.14c0,.4-.08.78-.11,1.14.09.15.19.22.32.2a1.52,1.52,0,0,0,.32-.06,24.13,24.13,0,0,1,3-.57l3-.43c.76-.07,1.51-.1,2.26-.1a7.44,7.44,0,0,0,2.25-.36,15.64,15.64,0,0,0,2.82-.07,8,8,0,0,1,2.87.21l.89.29a5.5,5.5,0,0,0,.88.25A5.35,5.35,0,0,0,27,32.46a2.51,2.51,0,0,1,1,1.45,5,5,0,0,1-1.88-.18,6.33,6.33,0,0,0-2-.23l-.18.09-.21.12a1,1,0,0,0-.2.16,36.29,36.29,0,0,0-4.32.34c-1.43.2-2.87.42-4.33.66-1.27.21-2.51.47-3.71.77s-2.42.64-3.66,1a9,9,0,0,0-1.23.51,13.4,13.4,0,0,1-1.3.56l-1.3.48-.82-.09L2,38a11,11,0,0,0-1.23-.73A1.4,1.4,0,0,1,0,36.05a1.61,1.61,0,0,1,.46-.75c.21-.2.45-.4.72-.61l.48-.1a3,3,0,0,1,.53,0,.61.61,0,0,0,.13-.23A.64.64,0,0,0,2.41,34a5.88,5.88,0,0,1-.84-2.3,13.22,13.22,0,0,1-.07-2.53c.09-1,.18-1.95.25-3s.16-2,.25-3.09A4.23,4.23,0,0,1,.93,22a12.51,12.51,0,0,1-.79-1.39,2,2,0,0,1,1-1.13A9.22,9.22,0,0,1,2.64,19a2.55,2.55,0,0,1,.23-.43A.86.86,0,0,0,3,18.07a31.21,31.21,0,0,1,1.46-5.28,46.39,46.39,0,0,1,2.23-5,1.65,1.65,0,0,0,.09-.22,1.38,1.38,0,0,1,.09-.23,2,2,0,0,0-.18-.55l-.27-.54a3.42,3.42,0,0,1-.21-.55,1.42,1.42,0,0,1,0-.64,1.16,1.16,0,0,1,.45-.66L7.38,4l1.2-.59a9.88,9.88,0,0,0,1.07-.59,8,8,0,0,0,1-1.1A2.67,2.67,0,0,1,11.88.82a3.28,3.28,0,0,0,.62.32,8.16,8.16,0,0,1,.75.36l.45,0a1.93,1.93,0,0,0,.5-.11C15.6,1,17,.77,18.39.57S21.18.24,22.58.18L24.35.07C24.93,0,25.52,0,26.13,0a7.19,7.19,0,0,1,1.61.09c.54.09,1.08.17,1.62.23l.41.39a1.5,1.5,0,0,1,.32.38c.21.34.4.66.57,1s.32.65.48,1a2.55,2.55,0,0,1,.11.55.72.72,0,0,1-.2.54,8.81,8.81,0,0,0-1.21-.36,8.82,8.82,0,0,1-1.25-.37,2,2,0,0,0-.37.25,2.17,2.17,0,0,1-.41.3,4.71,4.71,0,0,0-1.45,0c-.49.1-1,.2-1.5.32a6.33,6.33,0,0,1-1.12.28l-1.16.18a33.88,33.88,0,0,0-3.94,1c-1.26.41-2.57.78-3.94,1.12a2.25,2.25,0,0,0-.66,1c-.1.37-.22.73-.34,1.09-.36,1.06-.67,1.94-.91,2.64s-.43,1.29-.57,1.75-.23.86-.29,1.17-.11.59-.14.86a.36.36,0,0,0,.32.09.84.84,0,0,1,.27,0l3-.48,3.05-.48c.55-.09,1.11-.16,1.69-.2l1.68-.12a4.73,4.73,0,0,1,1.41,0,10.11,10.11,0,0,1,1.46.34c.24.33.51.67.79,1s.59.72.89,1.12a.78.78,0,0,1,.05.91l-.48,0-.57,0-.5,0-.5,0a3.56,3.56,0,0,1-.91.13,5.69,5.69,0,0,1-1.14.14,14,14,0,0,0-2.87.48,25.83,25.83,0,0,1-2.82.61,16.44,16.44,0,0,0-2.64.66,16.67,16.67,0,0,1-2.59.66,4.26,4.26,0,0,0-.71.25ZM8.29,13.47a7.12,7.12,0,0,1,.38-1.73c.2-.54.37-1.09.53-1.63.06-.19.12-.38.2-.57s.16-.39.25-.57a8.54,8.54,0,0,1,.55-1.32L10,7.56l-.34-.1-.27.46a2.82,2.82,0,0,0-.23.46,14.68,14.68,0,0,0-1,2.29,23.94,23.94,0,0,0-.68,2.44Q6.69,16.44,6,19.69a60.11,60.11,0,0,0-1.09,6.62c-.06.61-.11,1.18-.14,1.73s0,1.12,0,1.73a.12.12,0,0,0,0,.09.14.14,0,0,1,0,.09L5,29.86l.18-.09a1.16,1.16,0,0,0,.14.27l.23.37c0-.43,0-.81,0-1.14a2,2,0,0,0-.18-1A2.69,2.69,0,0,1,5.65,26a5.78,5.78,0,0,0,0-.63,2.49,2.49,0,0,1,0-.6,10.61,10.61,0,0,1,.41-2.46c.27-1.24.55-2.48.84-3.73s.58-2.49.89-3.73c0-.24.12-.49.18-.75a1.16,1.16,0,0,1,.41-.66,2.3,2.3,0,0,0,0,.39,3.79,3.79,0,0,1,0,.38.2.2,0,0,0,.14,0,4.41,4.41,0,0,0,0-.73.53.53,0,0,0,.28-.32.8.8,0,0,0-.19-.55v.91ZM7.92,16.3s0,0,0,0H7.79l.13.05Zm.32-.87v-.5H8.1v.5ZM9.15,12v-.18s0,0-.05,0a.11.11,0,0,1-.09.05s0,0,0,0,0,0,0,0Zm.27-1.14s0,.05,0,.05,0,0,0,0L9.33,11s.05,0,.14,0v-.14Z" transform="translate(0 0.01)"/><path class="cls-1" d="M34.05,31.73a6.67,6.67,0,0,0,1.07-1.05l.93-1.14c.37-.45.77-.93,1.21-1.43s.87-1,1.3-1.55.83-1.07,1.22-1.62a12,12,0,0,0,1-1.63,9.4,9.4,0,0,0,.45-.85,2.84,2.84,0,0,1,.64-.84c.39.12.8.24,1.21.34a3.09,3.09,0,0,1,1.11.57,4.8,4.8,0,0,1-.71,1.85,6.41,6.41,0,0,0-.79,1.7,4.07,4.07,0,0,1-.55.55,2.67,2.67,0,0,0-.5.55,2.53,2.53,0,0,1-.36,1,5.65,5.65,0,0,1-.62.77c-.23.24-.47.49-.73.73a4.68,4.68,0,0,0-.7.86.84.84,0,0,1-.23.23.68.68,0,0,0-.23.32q-.31.45-.57.87a8.63,8.63,0,0,1-.52.77.72.72,0,0,1-.18.2l-.18.16a9.13,9.13,0,0,1-1,.73c-.33.21-.66.44-1,.68a6.26,6.26,0,0,1-2.09.3,5,5,0,0,1-2.09-.52,4.06,4.06,0,0,1-1.69-1.21A4.62,4.62,0,0,1,28.59,31a10.68,10.68,0,0,1-.32-1.57,8.56,8.56,0,0,1-.05-1.52c0-.94,0-1.8.09-2.57s.15-1.53.25-2.28.25-1.49.41-2.23.39-1.56.66-2.44l.66-1.54c.23-.52.47-1,.71-1.51a7.64,7.64,0,0,1,.43-.75,6,6,0,0,1,.43-.54,3.71,3.71,0,0,1,.55-.48l.82-.59a6.05,6.05,0,0,1,1.59-.16,5.5,5.5,0,0,1,1.64.29,3.87,3.87,0,0,0,1,.32c.36.06.73.14,1.09.23l.89.18a4.93,4.93,0,0,1,.66.19,2.83,2.83,0,0,1,.64.77,1.78,1.78,0,0,1,.2.73,4,4,0,0,1,0,.82,6.11,6.11,0,0,0-.07,1,.58.58,0,0,0-.41.52.59.59,0,0,1-.41.52l-1.28-.45-1.32-.46a9.61,9.61,0,0,1-.7.91q-.39.46-.75,1A4.74,4.74,0,0,1,35.8,21c-.17.55-.37,1.13-.61,1.73s-.33.93-.44,1.32-.19.78-.25,1.14-.11.75-.16,1.14-.11.83-.2,1.32a12.68,12.68,0,0,0-.23,1.84c0,.63-.07,1.26-.13,1.89a.14.14,0,0,0,.09.14A.51.51,0,0,1,34.05,31.73ZM31.41,23.9a4.33,4.33,0,0,1-.18,1.27c-.13.4-.24.8-.35,1.21s-.2.81-.29,1.21a3.55,3.55,0,0,0-.05,1.27,1,1,0,0,1,.37,0,5,5,0,0,0,.23-1c.06-.46.11-.94.16-1.44s.07-1,.09-1.43S31.41,24.17,31.41,23.9Zm0-3.14c.39-.7.73-1.33,1-1.89s.55-1.1.82-1.62c0,0,0-.05,0-.07s-.06-.05-.09-.11A3.61,3.61,0,0,0,32,18.3,7.77,7.77,0,0,0,31.41,20.76Zm.45,1.54a.22.22,0,0,0-.13,0,1.51,1.51,0,0,1,0,.32,3.21,3.21,0,0,0,0,.36.2.2,0,0,0,.14,0,3.41,3.41,0,0,1,0-.37A1.52,1.52,0,0,0,31.86,22.3Zm.28-1.5a.17.17,0,0,1,0,.12.2.2,0,0,0,0,.11c.09-.09.15-.14.18-.14A.14.14,0,0,1,32.14,20.8Z" transform="translate(0 0.01)"/><path class="cls-1" d="M50.3,17.21l.41-.39c.12-.11.26-.23.41-.39.52.28,1.05.53,1.62.78a12.81,12.81,0,0,1,1.61.82c.61.33,1.2.63,1.78.88l1.73.8a8.54,8.54,0,0,0,1.66.57,4.93,4.93,0,0,1,1.75.84,1.3,1.3,0,0,1-.18.34.89.89,0,0,0-.14.25,7.5,7.5,0,0,1-1,.55l-1.07.5a12.87,12.87,0,0,1-1.61-.3,8.39,8.39,0,0,1-1.62-.56.55.55,0,0,0-.29.38,3,3,0,0,0,0,.43,14.3,14.3,0,0,1,0,1.85A9.9,9.9,0,0,1,55,26.45c-.15.24-.31.48-.48.73A5.27,5.27,0,0,0,54,28a1.69,1.69,0,0,0,0,.3c0,.1,0,.23.06.38a4.81,4.81,0,0,0-.36.85,3.17,3.17,0,0,1-.37.79c-.42.58-.84,1.16-1.25,1.75a8.79,8.79,0,0,1-1.38,1.58,6.65,6.65,0,0,1-6.92,1,4,4,0,0,1-.53-.25c-.2-.1-.37-.19-.52-.25-.43-.27-.78-.52-1.07-.73a3.71,3.71,0,0,1-1.27-1.57c-.17-.35-.36-.78-.57-1.3a14.58,14.58,0,0,1,0-3.8,15.86,15.86,0,0,1,1-3.52,26.71,26.71,0,0,1,1.41-3.1c.51-1,1.05-1.91,1.59-2.82a9.92,9.92,0,0,1,.62-.87c.19-.24.4-.48.61-.72a2.65,2.65,0,0,1,.59-.53,1.71,1.71,0,0,1,.78-.25c.66.34,1.3.69,1.91,1.07S49.63,16.84,50.3,17.21Zm-4,14.47c.69-.51,1.34-1,1.93-1.57a8.43,8.43,0,0,0,1.57-1.93,9.52,9.52,0,0,0,1.07-2.46,16.1,16.1,0,0,0,.48-2.6,14.33,14.33,0,0,0,0-3.23,5.82,5.82,0,0,0-.73-2.14c-.15.34-.29.63-.41.89s-.24.51-.36.75l-.3.16-.21.12c-.18.42-.34.86-.5,1.31s-.3.89-.45,1.28c-.27.64-.54,1.28-.8,1.93A12.7,12.7,0,0,0,47,26.26l-.09.37c0,.12-.07.24-.09.36a13.8,13.8,0,0,0-1,4.15.3.3,0,0,0,.05.16l.09.15.18.1A.92.92,0,0,1,46.3,31.68Z" transform="translate(0 0.01)"/><path class="cls-2" d="M59.59,15.25c-.28.24-.53.46-.78.66s-.53.45-.86.75c0,0,0,0,0,.07a.47.47,0,0,1-.12.2,1,1,0,0,1-.32.46l-.45.45c-.67-.06-1.32-.13-1.94-.22A5.77,5.77,0,0,1,53.26,17V15.89a14,14,0,0,1,3-4Q58.08,10.16,60,8.56a28.23,28.23,0,0,1,2.48-1.87c.87-.58,1.75-1.12,2.67-1.64s2-1.17,3-1.68A27.89,27.89,0,0,1,71.24,2c.76-.24,1.51-.47,2.25-.68S75,.91,75.7.73a9.42,9.42,0,0,1,4-.28l1,.48a2.7,2.7,0,0,1,.84.71l.6.5c.18.15.37.3.59.46l.66.59a2.94,2.94,0,0,1,.41.47,2.35,2.35,0,0,1,.25.6c.06.22.13.54.22.93A10.41,10.41,0,0,0,84,6.28a2.33,2.33,0,0,1-.43,1c-.16.24-.31.46-.46.66a1.8,1.8,0,0,0-.32.7.8.8,0,0,1-.27.37,2.56,2.56,0,0,0-.27.23.8.8,0,0,1-.62-.07.39.39,0,0,0-.52.07,2.29,2.29,0,0,0,.41.68,1.15,1.15,0,0,1-1.09,1.14,1.24,1.24,0,0,1,0,.27,3.21,3.21,0,0,0,0,.36A9.74,9.74,0,0,0,79,13.15a13.88,13.88,0,0,1-1.39,1.51c-.51.45-1,.91-1.45,1.36s-.93.91-1.41,1.37a.46.46,0,0,0,.38.29l.43,0a4.85,4.85,0,0,1,1.6.34,7.09,7.09,0,0,1,1.41.79c.48.43,1.05.87,1.68,1.33a4.7,4.7,0,0,1,2.33,2.7,5.08,5.08,0,0,1-.23,3.44c-.25.52-.48,1-.71,1.53a5.24,5.24,0,0,1-.93,1.38,9.2,9.2,0,0,1-.77.87l-.87.82-.32.18-.36.18a.32.32,0,0,0-.09.23,1.39,1.39,0,0,1,0,.32,1.71,1.71,0,0,0-.84.57,2.4,2.4,0,0,1-.8.66h-.77a2.19,2.19,0,0,1-.66.89,7.45,7.45,0,0,1-.93.61l-.8.41a7.85,7.85,0,0,1-.8.32l-1.27.54c-.43.19-.87.35-1.32.5h-.41a1.56,1.56,0,0,1-.5-.09c-.09.13-.18.23-.25.32a1.34,1.34,0,0,1-.25.23,2.4,2.4,0,0,1-1,.3,4.67,4.67,0,0,1-1-.07,5.07,5.07,0,0,0-.5.45c-1.16.31-2.3.58-3.44.82a19.6,19.6,0,0,1-3.57.41,4.86,4.86,0,0,1-1.32,0l-1.28-.18a2.31,2.31,0,0,1-1-.41,4.15,4.15,0,0,1-.8-.77v-.82a4.31,4.31,0,0,0,.91-.5,1.14,1.14,0,0,1,.09-.16.28.28,0,0,0,.05-.12c0-.85,0-1.68.07-2.5a19.57,19.57,0,0,1,.2-2.5c.06-.91.17-1.83.32-2.74s.3-1.83.45-2.77a34.79,34.79,0,0,1,1-4.51c.44-1.46.93-2.91,1.48-4.37l.16-.57a.93.93,0,0,0,0-.52c.06-.06.1-.09.13-.09S59.65,15.19,59.59,15.25Zm5.19-2.37a2.77,2.77,0,0,0-.82,2,1,1,0,0,0-.46.59c-.06.24-.13.5-.23.78-.21.54-.41,1.09-.61,1.64A14.38,14.38,0,0,1,62,19.57q-.23.51-.45,1c-.15.3-.31.64-.46,1-.39,1.4-.79,2.79-1.18,4.17s-.79,2.78-1.18,4.21c0,0,0,.1,0,.32l.32.09.41.09a.83.83,0,0,0,.32-.14.61.61,0,0,0,.11-.14A.27.27,0,0,0,60,30c.09-.36.19-.72.3-1.07a5.59,5.59,0,0,0,.2-1.11,31.25,31.25,0,0,1,1.28-5.28c.33-1.07.66-2.14,1-3.21s.66-2.15,1-3.21A3.48,3.48,0,0,0,64,14.84a2.35,2.35,0,0,0,.54-.93,6.28,6.28,0,0,0,.19-1l.18-.16c.06,0,0-.14-.05-.29A2.28,2.28,0,0,0,64.78,12.88Zm-.87,21.35A5.08,5.08,0,0,1,65,33.32a11.06,11.06,0,0,1,1.29-.64,18.69,18.69,0,0,0,3.51-1.79A37.75,37.75,0,0,0,73,28.59a7.16,7.16,0,0,0,.61-.48,5,5,0,0,1,.67-.48,6.54,6.54,0,0,1,.5-.71,5.43,5.43,0,0,0,.5-.75L76,25.06,76.75,24a5,5,0,0,0,.48-1.12c.1-.38.18-.78.25-1.2a1.21,1.21,0,0,0,0-.34q0-.16-.09-.3a1.49,1.49,0,0,1-.43-.05,2,2,0,0,0-.43,0L75,21.23l-1.39.3a2.2,2.2,0,0,0-.41.12.63.63,0,0,1-.36,0,1.34,1.34,0,0,0-.78,0l-.68.32a7,7,0,0,1-1.14.5,5.83,5.83,0,0,1-1.18.27c-.21.07-.4.12-.57.16l-.34.12L66.1,24.42c-.64.41-1.26.83-1.87,1.25a5.86,5.86,0,0,0-.73,2.14A10.56,10.56,0,0,1,63,30c-.18.67-.33,1.32-.46,2s-.24,1.29-.36,2c-.06,0-.07.07,0,.11a.53.53,0,0,0,.09.11c.15.13.27.16.36.1a.65.65,0,0,1,.37-.1,2,2,0,0,1,.43,0ZM65.32,10a.65.65,0,0,0-.63.32A6.3,6.3,0,0,0,64,11.7c-.19.48-.35,1-.5,1.45a.37.37,0,0,0,0,.16,2.54,2.54,0,0,0,.11.3l.94-1.68c.28-.52.58-1.07.88-1.64v-.23Zm3.92-2.14q-.78,2.51-1.53,5l-1.52,5.05s0,.09.13.18a1.37,1.37,0,0,0,.64-.34l.5-.48q2.06-1.72,4-3.57t3.69-3.76A25.54,25.54,0,0,0,77,7.78c.6-.72,1.2-1.48,1.8-2.27A3,3,0,0,0,79.18,5c.11-.19.22-.38.34-.56s.07-.37-.18-.55a10.49,10.49,0,0,0-1.89.36c-.62.19-1.22.34-1.79.46L75,5.08l-.61.29-.51-.09-.45-.09a1.49,1.49,0,0,1-.2.36,1.29,1.29,0,0,0-.21.37c-.42.15-.86.32-1.3.5s-.9.39-1.39.64c-.15.09-.31.2-.5.34S69.42,7.68,69.24,7.83Z" transform="translate(0 0.01)"/><path class="cls-2" d="M93,17.21l.41-.39c.12-.11.26-.23.41-.39.51.28,1.05.53,1.61.78a13.66,13.66,0,0,1,1.62.82c.61.33,1.2.63,1.77.88l1.73.8a8.63,8.63,0,0,0,1.67.57,4.93,4.93,0,0,1,1.75.84,1.3,1.3,0,0,1-.18.34.89.89,0,0,0-.14.25,7.5,7.5,0,0,1-1,.55l-1.07.5a12.54,12.54,0,0,1-1.61-.3,8.16,8.16,0,0,1-1.62-.56.61.61,0,0,0-.3.38c0,.14,0,.28,0,.43a16.34,16.34,0,0,1,0,1.85,9.9,9.9,0,0,1-.34,1.89l-.48.73a5.27,5.27,0,0,0-.48.86c0,.09,0,.19,0,.3s0,.23.07.38a4.81,4.81,0,0,0-.36.85,3.57,3.57,0,0,1-.37.79c-.42.58-.84,1.16-1.25,1.75a8.46,8.46,0,0,1-1.39,1.58,6.63,6.63,0,0,1-6.91,1,4,4,0,0,1-.53-.25c-.2-.1-.37-.19-.52-.25-.43-.27-.78-.52-1.07-.73a4,4,0,0,1-.73-.68,4.38,4.38,0,0,1-.55-.89c-.16-.35-.35-.78-.57-1.3a14.57,14.57,0,0,1,.05-3.8,15.86,15.86,0,0,1,1-3.52A26.71,26.71,0,0,1,85,20.21q.77-1.46,1.59-2.82c.21-.33.42-.62.61-.87l.62-.72a2.65,2.65,0,0,1,.59-.53,1.67,1.67,0,0,1,.77-.25c.67.34,1.31.69,1.92,1.07S92.33,16.84,93,17.21ZM89,31.68a24.5,24.5,0,0,0,1.94-1.57,8.43,8.43,0,0,0,1.57-1.93,9.52,9.52,0,0,0,1.07-2.46,18.62,18.62,0,0,0,.48-2.6,14.33,14.33,0,0,0,0-3.23,6,6,0,0,0-.73-2.14l-.41.89c-.12.26-.25.51-.37.75l-.29.16-.21.12c-.18.42-.35.86-.5,1.31s-.3.89-.45,1.28c-.28.64-.54,1.28-.8,1.93a13.79,13.79,0,0,0-.62,2.07c0,.13-.06.25-.09.37l-.09.36a13.81,13.81,0,0,0-1,4.15.3.3,0,0,0,.05.16l.09.15.18.1A.68.68,0,0,1,89,31.68ZM90.77,5.83c.57-.55,1.19-1.08,1.84-1.6s1.28-1,1.89-1.43S95.68,2,96.21,1.64s1-.59,1.29-.77h1.76c.56,0,1.13,0,1.7-.05a.51.51,0,0,1,.32.45,2.65,2.65,0,0,1-.09.64,10.21,10.21,0,0,1-1.2,1c-.57.39-1.19.83-1.89,1.29s-1.44.94-2.21,1.42L93.73,6.87a2.35,2.35,0,0,1-1.6-.09A4.48,4.48,0,0,1,90.77,5.83Z" transform="translate(0 0.01)"/><path class="cls-2" d="M107.65,25a3.29,3.29,0,0,1,.48-.39,2.93,2.93,0,0,0,.48-.39A79.88,79.88,0,0,1,115.17,18c.48-.42,1-.83,1.48-1.23s1-.8,1.52-1.23l.25,0a.6.6,0,0,1,.3,0c.63.15,1.27.32,1.91.5s1.24.35,1.82.5a2.42,2.42,0,0,1,.52.75,2,2,0,0,1,.16.78,6.06,6.06,0,0,1,0,.75c0,.24-.07.49-.1.73-.18.52-.34,1-.5,1.5a14.36,14.36,0,0,1-.54,1.46c-.15.45-.3.92-.43,1.39s-.3.93-.48,1.38c-.06.25-.14.6-.23,1s-.19.93-.3,1.41-.2,1-.29,1.41-.17.82-.23,1.1a3.06,3.06,0,0,0,.89-.76c.41-.44.84-.93,1.3-1.48s.87-1.06,1.25-1.54l.75-1,.45-.55.46-.54.48-.46.48-.45.81-.07c.25,0,.52,0,.82-.07a2.6,2.6,0,0,0,.23.28,1.84,1.84,0,0,1,.23.27,1.87,1.87,0,0,1,.09.32,1.23,1.23,0,0,1-.45,1.27,7.19,7.19,0,0,0-1,1.05c-.27.36-.55.74-.82,1.14-.15.21-.44.6-.87,1.16s-.88,1.15-1.38,1.77-1,1.22-1.39,1.78-.72,1-.87,1.16A1.46,1.46,0,0,1,121,34l-.55.2a3,3,0,0,0-.52.23,1.11,1.11,0,0,0-.44.55.42.42,0,0,1-.11.15l-.16.16-1-.06a8.72,8.72,0,0,1-1-.12c-.48-.09-1-.2-1.43-.32a2.63,2.63,0,0,1-1.3-.86c-.06-.49-.14-1-.25-1.53s-.19-1.05-.25-1.57a4.59,4.59,0,0,1,0-1.45c.06-.64.13-1.31.2-2s.15-1.41.21-2.14c0-.15.05-.33.07-.54a.8.8,0,0,0-.16-.55c-.1,0-.14,0-.14,0-.52.51-1,1-1.48,1.57s-.93,1.07-1.39,1.61c-.15.16-.29.31-.41.46a5.57,5.57,0,0,1-.41.45c-.52.64-1,1.29-1.55,1.94s-1,1.3-1.54,1.93a1,1,0,0,1-.32.39c-.15.11-.29.2-.41.3l-.71.25-.61.2a3.34,3.34,0,0,0-.14.41,2.6,2.6,0,0,1-.13.36,1.4,1.4,0,0,1-.39.14,3.15,3.15,0,0,0-.44.14,2.49,2.49,0,0,0-.43.22,4.55,4.55,0,0,1-.43.28,7.21,7.21,0,0,0-.93-.3c-.32-.07-.64-.16-1-.25a5.26,5.26,0,0,1-.93-.36,2.1,2.1,0,0,1-.78-.68,6.29,6.29,0,0,1-.34-1.85,19.48,19.48,0,0,1,.07-2c.18-1.36.42-2.7.71-4s.6-2.65.93-4a16.34,16.34,0,0,1,.84-2.62c.35-.83.74-1.67,1.16-2.52a6.94,6.94,0,0,1,.73-1.19,2.15,2.15,0,0,1,.32-.41l.32-.32a1.26,1.26,0,0,1,.68-.15,1.79,1.79,0,0,1,.55.11l1.43.45c.47.16,1,.34,1.57.55.09.12.21.26.34.41a5.58,5.58,0,0,1,.39.46c0,.15,0,.29,0,.43a1.27,1.27,0,0,1,0,.43c-.24,1.15-.49,2.28-.73,3.39a20.08,20.08,0,0,1-1,3.26,3.84,3.84,0,0,0-.14,1.27q-.41.27-.09.27s0,0,.07-.06A.46.46,0,0,1,107.65,25Zm-2.91-.78a1.05,1.05,0,0,0,.55-.43,1.08,1.08,0,0,0,.13-.52,3.31,3.31,0,0,0,0-.55,3.31,3.31,0,0,1,0-.55.72.72,0,0,0,.5-.68c0-.3,0-.61,0-.91.45-.24.66-.54.61-.89s-.09-.73-.16-1.16a1.69,1.69,0,0,0,1-.57,1.26,1.26,0,0,0,.18-1,.76.76,0,0,0-.63-.22c-.43.18-.6.44-.5.77s.16.67.22,1c-.51.31-.75.64-.7,1s.1.76.16,1.19a1.08,1.08,0,0,0-.57.66c-.05.23-.12.49-.21.79a1.4,1.4,0,0,0-.5,1.07c0,.35,0,.71,0,1.07-.15.16-.29.31-.41.46s-.06.33.18.55A1.67,1.67,0,0,0,104.74,24.26Z" transform="translate(0 0.01)"/></svg>