<svg xmlns="http://www.w3.org/2000/svg" viewBox="0 0 29.83 30.35"><defs><style>.cls-1{fill:#e52521;}</style></defs><g id="Capa_3" data-name="Capa 3"><path id="path10" class="cls-1" d="M20.12,0c-4.27.3-9.42,2.16-16.3,5.9A23.06,23.06,0,0,0,.67,7.79,8.31,8.31,0,0,0,0,11.59c0,.94,0,1.09.1,1.22s.14.14.36.14.32,0,1.78-1c.46-.32,1.49-1,2.31-1.5,6-3.77,11.73-6.2,16-6.77a8.18,8.18,0,0,1,4.37.57,3.23,3.23,0,0,1,1.89,1.84c.44,1.23-.25,2.69-2.12,4.49-2.37,2.29-5.73,3.86-11.49,5.38l-.85.22c-.06,0-.11,0-.11,0s1.22-1.9,3-4.53c1.4-2.07,1.51-2.28,1.51-3.08a1.51,1.51,0,0,0-.55-1.33,1.13,1.13,0,0,0-.9-.33.93.93,0,0,0-.87.48c-.66.84-2.81,4-5.37,7.84L7.77,17.08l-.41,0-2.09.12a7.51,7.51,0,0,0-2.68.32c-.56.24-.77.5-.77.91a.73.73,0,0,0,.09.36,1.66,1.66,0,0,0,.9.45,16.54,16.54,0,0,0,2.53.16,3.49,3.49,0,0,1,.84,0s-.9,1.41-2,3.1C1.93,26,1.87,26.12,1.5,26.94A4.09,4.09,0,0,0,1,29.34a1.45,1.45,0,0,0,.46.87c.16.13.23.14.63.14a2.6,2.6,0,0,0,1.53-.55,7.3,7.3,0,0,0,2.11-2.48,4.17,4.17,0,0,0,.71-1.75,3.8,3.8,0,0,1,.62-1.3c.81-1.38,1.84-3.09,2.65-4.37l.69-1.09,1.2-.28a59.19,59.19,0,0,0,6.7-2,35.05,35.05,0,0,0,6.25-3.12A13.91,13.91,0,0,0,29.07,9a5.42,5.42,0,0,0,.75-3.17A5.08,5.08,0,0,0,28.1,2.24,7.34,7.34,0,0,0,23.45.11,23.56,23.56,0,0,0,20.12,0Z"/></g></svg>